<svg xmlns="http://www.w3.org/2000/svg" width="260" height="54" viewBox="0 0 260 54">
  <g id="Group_2" data-name="Group 2" transform="translate(-84 -51)">
    <g id="logo" transform="translate(84 51)">
      <g id="Layer_1" data-name="Layer 1">
        <g id="Layer_2" data-name="Layer 2">
          <g id="Layer_1-2" data-name="Layer 1-2">
            <path id="Path_10" data-name="Path 10" d="M15.532,7.187,14.29,5.12v7.864l1.242,2.029,2.48,4.053,3.722,6.082V17.536l-3.722-6.21Z" transform="translate(-8.212 -2.942)" fill="#0084c5"/>
            <path id="Path_11" data-name="Path 11" d="M0,4.815v15.04A4.806,4.806,0,0,0,4.794,24.67h.043V0H4.794A4.806,4.806,0,0,0,0,4.815Z" transform="translate(0)" fill="#003a59"/>
            <path id="Path_12" data-name="Path 12" d="M46.7,0H34.53V24.576a4.8,4.8,0,0,0,4.794-4.811h0V14.632H46.7a7.316,7.316,0,0,0,7.316-7.316h0A7.316,7.316,0,0,0,46.7,0Z" transform="translate(-19.843)" fill="#003a59"/>
          </g>
        </g>
        <path id="Path_13" data-name="Path 13" d="M97.01,25.405,90,1.28h3.671l5.074,18.247L103.828,1.3h3.688l5.074,18.247L117.668,1.3h3.683l-7.018,24.108h-3.492L105.674,7.362,100.5,25.405Z" transform="translate(-51.72 -0.736)" fill="#003a59"/>
        <path id="Path_14" data-name="Path 14" d="M185.7,22.1v3.3H170.29v-3.2Zm-2.008-10.736v3.3l-13.4-.1V11.543ZM170.29,1.28H185.7V4.564L170.29,4.5Z" transform="translate(-97.859 -0.736)" fill="#003a59"/>
        <path id="Path_15" data-name="Path 15" d="M216,25.4V1.274h9.481a7.35,7.35,0,0,1,3.854.94,6.244,6.244,0,0,1,2.348,2.42,6.584,6.584,0,0,1,.787,3.126,5.865,5.865,0,0,1-.983,3.4,4.874,4.874,0,0,1-2.637,1.944l-.034-.821a6.074,6.074,0,0,1,3.552,2.22,6.24,6.24,0,0,1,1.242,3.828,7.741,7.741,0,0,1-.851,3.7,5.98,5.98,0,0,1-2.463,2.454,8.081,8.081,0,0,1-3.917.91Zm3.552-14.274h5.882a3.853,3.853,0,0,0,1.748-.391,3.083,3.083,0,0,0,1.242-1.14,3.373,3.373,0,0,0,.459-1.8,3.075,3.075,0,0,0-.94-2.31,3.462,3.462,0,0,0-2.518-.923h-5.882Zm0,10.94h6.3a4.883,4.883,0,0,0,2.127-.451,3.6,3.6,0,0,0,1.493-1.3,3.671,3.671,0,0,0,.566-2.02,4.053,4.053,0,0,0-.481-1.969,3.475,3.475,0,0,0-1.37-1.391,4.194,4.194,0,0,0-2.105-.51h-6.537Z" transform="translate(-124.127 -0.73)" fill="#003a59"/>
        <path id="Path_16" data-name="Path 16" d="M288.2,25.25a11.714,11.714,0,0,1-4.679-.9,8.77,8.77,0,0,1-3.432-2.552,8.506,8.506,0,0,1-1.752-3.964l3.654-.553a5.729,5.729,0,0,0,2.31,3.445,6.984,6.984,0,0,0,4.1,1.221,7.541,7.541,0,0,0,2.68-.459,4.755,4.755,0,0,0,1.969-1.323A3.058,3.058,0,0,0,293.8,18.1a2.736,2.736,0,0,0-.225-1.153,2.789,2.789,0,0,0-.617-.88,3.8,3.8,0,0,0-.957-.672,7.864,7.864,0,0,0-1.229-.476l-6.193-1.808a14.077,14.077,0,0,1-1.833-.693,6.806,6.806,0,0,1-1.7-1.123,5.321,5.321,0,0,1-1.276-1.723,5.861,5.861,0,0,1-.485-2.505,6.159,6.159,0,0,1,1.144-3.777,7.1,7.1,0,0,1,3.1-2.356,11.544,11.544,0,0,1,4.389-.791,11.331,11.331,0,0,1,4.381.872,8.409,8.409,0,0,1,3.216,2.4,8.878,8.878,0,0,1,1.769,3.794l-3.756.638a4.96,4.96,0,0,0-1.072-2.339A5.529,5.529,0,0,0,290.449,4a6.508,6.508,0,0,0-2.582-.544,6.3,6.3,0,0,0-2.454.4A4.325,4.325,0,0,0,283.64,5.08a2.722,2.722,0,0,0-.664,1.8,2.263,2.263,0,0,0,.587,1.625A4.147,4.147,0,0,0,285,9.5a14.658,14.658,0,0,0,1.7.6l4.458,1.255c.557.157,1.191.366,1.9.629a8.689,8.689,0,0,1,2.059,1.1,5.5,5.5,0,0,1,1.65,1.867,5.87,5.87,0,0,1,.655,2.922,6.529,6.529,0,0,1-2.756,5.529,9.217,9.217,0,0,1-2.977,1.4,13.16,13.16,0,0,1-3.488.459Z" transform="translate(-159.951 -0.078)" fill="#003a59"/>
        <path id="Path_17" data-name="Path 17" d="M334.956,25.405V4.564H326.93V1.28H346.5V4.564h-8.052V25.405Z" transform="translate(-187.874 -0.736)" fill="#003a59"/>
        <path id="Path_18" data-name="Path 18" d="M388.8,25.907a10.391,10.391,0,0,1-5-1.165,8.439,8.439,0,0,1-3.4-3.267,9.642,9.642,0,0,1-1.225-4.947V1.3h3.552V16.341a6.669,6.669,0,0,0,.519,2.714,5.657,5.657,0,0,0,1.387,1.961,5.955,5.955,0,0,0,1.952,1.191,6.257,6.257,0,0,0,4.424,0,6.194,6.194,0,0,0,1.952-1.2,5.692,5.692,0,0,0,1.4-1.982,6.686,6.686,0,0,0,.51-2.7V1.28h3.552V16.528a9.655,9.655,0,0,1-1.225,4.938,8.46,8.46,0,0,1-3.4,3.275,10.413,10.413,0,0,1-4.989,1.165Z" transform="translate(-217.891 -0.736)" fill="#003a59"/>
        <path id="Path_19" data-name="Path 19" d="M435.44,25.405V1.28h8.8A14.419,14.419,0,0,1,446,1.416a8.737,8.737,0,0,1,4.764,2.025,10.48,10.48,0,0,1,2.926,4.253,15.58,15.58,0,0,1,.987,5.636,15.622,15.622,0,0,1-.987,5.653,10.365,10.365,0,0,1-2.926,4.253A8.8,8.8,0,0,1,446,25.256a15.342,15.342,0,0,1-1.752.132H443Zm3.586-3.335H443c.379,0,.851,0,1.357-.034a11.222,11.222,0,0,0,1.391-.132,5.287,5.287,0,0,0,2.977-1.6,7.656,7.656,0,0,0,1.7-3.075,13.739,13.739,0,0,0,.536-3.888,13.609,13.609,0,0,0-.553-3.943,7.656,7.656,0,0,0-1.7-3.05,5.24,5.24,0,0,0-2.956-1.57,9.192,9.192,0,0,0-1.4-.14c-.532,0-.982-.026-1.348-.026H439.03Z" transform="translate(-250.231 -0.736)" fill="#003a59"/>
        <path id="Path_20" data-name="Path 20" d="M490.62,25.405V1.28h3.5V25.405Z" transform="translate(-281.941 -0.736)" fill="#003a59"/>
        <path id="Path_21" data-name="Path 21" d="M518.923,25.224a11.45,11.45,0,0,1-6.163-1.582,10.281,10.281,0,0,1-3.9-4.415,15.13,15.13,0,0,1-1.348-6.567,15.142,15.142,0,0,1,1.348-6.567,10.281,10.281,0,0,1,3.9-4.415,12.786,12.786,0,0,1,12.335,0,10.207,10.207,0,0,1,3.892,4.415,15.2,15.2,0,0,1,1.34,6.567,15.192,15.192,0,0,1-1.34,6.567,10.208,10.208,0,0,1-3.9,4.415A11.484,11.484,0,0,1,518.923,25.224Zm0-3.335a7.175,7.175,0,0,0,4.253-1.131,7.043,7.043,0,0,0,2.552-3.25,12.72,12.72,0,0,0,.851-4.849,12.585,12.585,0,0,0-.851-4.832A7.014,7.014,0,0,0,523.177,4.6a7.5,7.5,0,0,0-4.253-1.174,7.261,7.261,0,0,0-4.253,1.123,7.005,7.005,0,0,0-2.552,3.25,12.943,12.943,0,0,0-.851,4.857,12.437,12.437,0,0,0,.851,4.832,7.014,7.014,0,0,0,2.552,3.228A7.575,7.575,0,0,0,518.923,21.89Z" transform="translate(-291.648 -0.053)" fill="#003a59"/>
        <path id="Path_22" data-name="Path 22" d="M576.234,25.25a11.693,11.693,0,0,1-4.679-.9,8.783,8.783,0,0,1-3.437-2.552,8.507,8.507,0,0,1-1.748-3.964l3.649-.553a5.75,5.75,0,0,0,2.314,3.445,6.963,6.963,0,0,0,4.087,1.221,7.576,7.576,0,0,0,2.68-.459,4.755,4.755,0,0,0,2-1.323,3.058,3.058,0,0,0,.744-2.071,2.692,2.692,0,0,0-.851-2.033,3.772,3.772,0,0,0-.961-.672,7.918,7.918,0,0,0-1.234-.476l-6.18-1.825a14.121,14.121,0,0,1-1.846-.676,6.781,6.781,0,0,1-1.7-1.123,5.335,5.335,0,0,1-1.276-1.723,5.862,5.862,0,0,1-.485-2.505,6.159,6.159,0,0,1,1.148-3.777,7.077,7.077,0,0,1,3.1-2.356,11.544,11.544,0,0,1,4.39-.791,11.343,11.343,0,0,1,4.381.872,8.408,8.408,0,0,1,3.216,2.4,8.867,8.867,0,0,1,1.765,3.794l-3.751.638a4.96,4.96,0,0,0-1.072-2.339A5.53,5.53,0,0,0,578.479,4a6.474,6.474,0,0,0-2.578-.544,6.283,6.283,0,0,0-2.454.4A4.373,4.373,0,0,0,571.67,5.08a2.718,2.718,0,0,0-.659,1.8,2.276,2.276,0,0,0,.583,1.625,4.186,4.186,0,0,0,1.45.983,14.711,14.711,0,0,0,1.7.6l4.458,1.255c.557.157,1.191.366,1.9.63a8.77,8.77,0,0,1,2.059,1.1,5.528,5.528,0,0,1,1.65,1.867,5.916,5.916,0,0,1,.655,2.922,6.554,6.554,0,0,1-2.756,5.529,9.242,9.242,0,0,1-2.977,1.4A13.114,13.114,0,0,1,576.234,25.25Z" transform="translate(-325.471 -0.078)" fill="#003a59"/>
      </g>
    </g>
    <text id="Making_the_web_a_beautiful_place" data-name="Making the web a beautiful place" transform="translate(97 101)" fill="#707070" font-size="16" font-family="SegoeUI, Segoe UI"><tspan x="0" y="0">Making the web a beautiful place</tspan></text>
  </g>
</svg>
